<mxfile host="app.diagrams.net" agent="Mozilla/5.0 (Macintosh; Intel Mac OS X 10_15_7) AppleWebKit/537.36 (KHTML, like Gecko) Chrome/132.0.0.0 Safari/537.36" version="26.1.3">
  <diagram name="Page-1" id="RyzODVrsnpRrdGUeK4y3">
    <mxGraphModel dx="1199" dy="696" grid="1" gridSize="10" guides="1" tooltips="1" connect="1" arrows="1" fold="1" page="1" pageScale="1" pageWidth="850" pageHeight="1100" math="0" shadow="0">
      <root>
        <mxCell id="0" />
        <mxCell id="1" parent="0" />
        <mxCell id="3YjA9elF94JakfE6r7-t-1" value="" style="ellipse;html=1;shape=startState;fillColor=#000000;strokeColor=#000000;" vertex="1" parent="1">
          <mxGeometry x="190" y="60" width="30" height="30" as="geometry" />
        </mxCell>
        <mxCell id="3YjA9elF94JakfE6r7-t-2" value="" style="edgeStyle=orthogonalEdgeStyle;html=1;verticalAlign=bottom;endArrow=classicThin;endSize=8;strokeColor=#0F0F0F;rounded=0;entryX=0.5;entryY=0;entryDx=0;entryDy=0;endFill=1;" edge="1" parent="1" source="3YjA9elF94JakfE6r7-t-1" target="3YjA9elF94JakfE6r7-t-7">
          <mxGeometry relative="1" as="geometry">
            <mxPoint x="205" y="110" as="targetPoint" />
          </mxGeometry>
        </mxCell>
        <mxCell id="3YjA9elF94JakfE6r7-t-3" style="edgeStyle=orthogonalEdgeStyle;rounded=0;orthogonalLoop=1;jettySize=auto;html=1;exitX=0;exitY=0.5;exitDx=0;exitDy=0;entryX=0.5;entryY=0;entryDx=0;entryDy=0;" edge="1" parent="1" source="3YjA9elF94JakfE6r7-t-7" target="3YjA9elF94JakfE6r7-t-12">
          <mxGeometry relative="1" as="geometry">
            <mxPoint x="84" y="230" as="targetPoint" />
          </mxGeometry>
        </mxCell>
        <mxCell id="3YjA9elF94JakfE6r7-t-4" value="Yes" style="edgeLabel;html=1;align=center;verticalAlign=middle;resizable=0;points=[];" vertex="1" connectable="0" parent="3YjA9elF94JakfE6r7-t-3">
          <mxGeometry x="-0.247" relative="1" as="geometry">
            <mxPoint x="22" y="-15" as="offset" />
          </mxGeometry>
        </mxCell>
        <mxCell id="3YjA9elF94JakfE6r7-t-5" style="edgeStyle=orthogonalEdgeStyle;rounded=0;orthogonalLoop=1;jettySize=auto;html=1;entryX=0.5;entryY=0;entryDx=0;entryDy=0;" edge="1" parent="1" source="3YjA9elF94JakfE6r7-t-7" target="3YjA9elF94JakfE6r7-t-17">
          <mxGeometry relative="1" as="geometry">
            <mxPoint x="350" y="180" as="targetPoint" />
          </mxGeometry>
        </mxCell>
        <mxCell id="3YjA9elF94JakfE6r7-t-6" value="No" style="edgeLabel;html=1;align=center;verticalAlign=middle;resizable=0;points=[];" vertex="1" connectable="0" parent="3YjA9elF94JakfE6r7-t-5">
          <mxGeometry x="-0.6505" y="2" relative="1" as="geometry">
            <mxPoint x="-4" y="-13" as="offset" />
          </mxGeometry>
        </mxCell>
        <mxCell id="3YjA9elF94JakfE6r7-t-7" value="&lt;br&gt;Are there applied filters?" style="rhombus;whiteSpace=wrap;html=1;" vertex="1" parent="1">
          <mxGeometry x="143.75" y="110" width="122.5" height="70" as="geometry" />
        </mxCell>
        <mxCell id="3YjA9elF94JakfE6r7-t-8" style="edgeStyle=orthogonalEdgeStyle;rounded=0;orthogonalLoop=1;jettySize=auto;html=1;entryX=0.5;entryY=0;entryDx=0;entryDy=0;exitX=1;exitY=0.5;exitDx=0;exitDy=0;" edge="1" parent="1" source="3YjA9elF94JakfE6r7-t-12" target="3YjA9elF94JakfE6r7-t-19">
          <mxGeometry relative="1" as="geometry" />
        </mxCell>
        <mxCell id="3YjA9elF94JakfE6r7-t-9" value="Yes" style="edgeLabel;html=1;align=center;verticalAlign=middle;resizable=0;points=[];" vertex="1" connectable="0" parent="3YjA9elF94JakfE6r7-t-8">
          <mxGeometry x="-0.8309" relative="1" as="geometry">
            <mxPoint x="9" y="-10" as="offset" />
          </mxGeometry>
        </mxCell>
        <mxCell id="3YjA9elF94JakfE6r7-t-10" style="edgeStyle=orthogonalEdgeStyle;rounded=0;orthogonalLoop=1;jettySize=auto;html=1;endArrow=none;startFill=0;endFill=1;jumpStyle=line;movable=1;resizable=1;rotatable=1;deletable=1;editable=1;locked=0;connectable=1;entryX=0.163;entryY=0.35;entryDx=0;entryDy=0;entryPerimeter=0;" edge="1" parent="1">
          <mxGeometry relative="1" as="geometry">
            <mxPoint x="505" y="400" as="targetPoint" />
            <Array as="points">
              <mxPoint x="80" y="400" />
            </Array>
            <mxPoint x="80" y="256" as="sourcePoint" />
          </mxGeometry>
        </mxCell>
        <mxCell id="3YjA9elF94JakfE6r7-t-11" value="No" style="edgeLabel;html=1;align=center;verticalAlign=middle;resizable=0;points=[];" vertex="1" connectable="0" parent="3YjA9elF94JakfE6r7-t-10">
          <mxGeometry x="-0.8153" y="4" relative="1" as="geometry">
            <mxPoint x="-34" y="-48" as="offset" />
          </mxGeometry>
        </mxCell>
        <mxCell id="3YjA9elF94JakfE6r7-t-12" value="Clear Filters?" style="rhombus;whiteSpace=wrap;html=1;" vertex="1" parent="1">
          <mxGeometry x="50" y="200" width="60" height="60" as="geometry" />
        </mxCell>
        <mxCell id="3YjA9elF94JakfE6r7-t-13" style="edgeStyle=orthogonalEdgeStyle;rounded=0;orthogonalLoop=1;jettySize=auto;html=1;exitX=1;exitY=0.5;exitDx=0;exitDy=0;movable=1;resizable=1;rotatable=1;deletable=1;editable=1;locked=0;connectable=1;endArrow=none;startFill=0;" edge="1" parent="1" source="3YjA9elF94JakfE6r7-t-17" target="3YjA9elF94JakfE6r7-t-26">
          <mxGeometry relative="1" as="geometry">
            <mxPoint x="510.25" y="450" as="targetPoint" />
          </mxGeometry>
        </mxCell>
        <mxCell id="3YjA9elF94JakfE6r7-t-14" value="Yes" style="edgeLabel;html=1;align=center;verticalAlign=middle;resizable=0;points=[];" vertex="1" connectable="0" parent="3YjA9elF94JakfE6r7-t-13">
          <mxGeometry x="-0.6015" y="-2" relative="1" as="geometry">
            <mxPoint x="-42" y="-12" as="offset" />
          </mxGeometry>
        </mxCell>
        <mxCell id="3YjA9elF94JakfE6r7-t-15" style="edgeStyle=orthogonalEdgeStyle;rounded=0;orthogonalLoop=1;jettySize=auto;html=1;entryX=0.5;entryY=0;entryDx=0;entryDy=0;exitX=0;exitY=0.5;exitDx=0;exitDy=0;" edge="1" parent="1" source="3YjA9elF94JakfE6r7-t-17" target="3YjA9elF94JakfE6r7-t-19">
          <mxGeometry relative="1" as="geometry" />
        </mxCell>
        <mxCell id="3YjA9elF94JakfE6r7-t-16" value="No" style="edgeLabel;html=1;align=center;verticalAlign=middle;resizable=0;points=[];" vertex="1" connectable="0" parent="3YjA9elF94JakfE6r7-t-15">
          <mxGeometry x="-0.5145" y="-1" relative="1" as="geometry">
            <mxPoint x="23" y="-9" as="offset" />
          </mxGeometry>
        </mxCell>
        <mxCell id="3YjA9elF94JakfE6r7-t-17" value="Select Filters?" style="rhombus;whiteSpace=wrap;html=1;" vertex="1" parent="1">
          <mxGeometry x="369" y="200" width="75" height="60" as="geometry" />
        </mxCell>
        <mxCell id="3YjA9elF94JakfE6r7-t-18" style="edgeStyle=orthogonalEdgeStyle;rounded=0;orthogonalLoop=1;jettySize=auto;html=1;entryX=0.5;entryY=0;entryDx=0;entryDy=0;" edge="1" parent="1" source="3YjA9elF94JakfE6r7-t-19" target="3YjA9elF94JakfE6r7-t-23">
          <mxGeometry relative="1" as="geometry" />
        </mxCell>
        <mxCell id="3YjA9elF94JakfE6r7-t-19" value="View all Results" style="rounded=1;whiteSpace=wrap;html=1;" vertex="1" parent="1">
          <mxGeometry x="190" y="260" width="130" height="30" as="geometry" />
        </mxCell>
        <mxCell id="3YjA9elF94JakfE6r7-t-20" style="edgeStyle=orthogonalEdgeStyle;rounded=0;orthogonalLoop=1;jettySize=auto;html=1;entryX=0.5;entryY=0;entryDx=0;entryDy=0;" edge="1" parent="1" source="3YjA9elF94JakfE6r7-t-21" target="3YjA9elF94JakfE6r7-t-31">
          <mxGeometry relative="1" as="geometry" />
        </mxCell>
        <mxCell id="3YjA9elF94JakfE6r7-t-21" value="Apply Filters" style="rounded=1;whiteSpace=wrap;html=1;" vertex="1" parent="1">
          <mxGeometry x="449" y="440" width="120" height="30" as="geometry" />
        </mxCell>
        <mxCell id="3YjA9elF94JakfE6r7-t-22" style="edgeStyle=orthogonalEdgeStyle;rounded=0;orthogonalLoop=1;jettySize=auto;html=1;entryX=0.5;entryY=0;entryDx=0;entryDy=0;exitX=0.5;exitY=1;exitDx=0;exitDy=0;" edge="1" parent="1" source="3YjA9elF94JakfE6r7-t-32" target="3YjA9elF94JakfE6r7-t-24">
          <mxGeometry relative="1" as="geometry">
            <mxPoint x="400.04999999999995" y="610" as="sourcePoint" />
          </mxGeometry>
        </mxCell>
        <mxCell id="3YjA9elF94JakfE6r7-t-23" value="" style="ellipse;html=1;shape=endState;fillColor=#000000;strokeColor=#000000;" vertex="1" parent="1">
          <mxGeometry x="240" y="315" width="30" height="30" as="geometry" />
        </mxCell>
        <mxCell id="3YjA9elF94JakfE6r7-t-24" value="" style="ellipse;html=1;shape=endState;fillColor=#000000;strokeColor=#000000;" vertex="1" parent="1">
          <mxGeometry x="385" y="630" width="30" height="30" as="geometry" />
        </mxCell>
        <mxCell id="3YjA9elF94JakfE6r7-t-25" style="edgeStyle=orthogonalEdgeStyle;rounded=0;orthogonalLoop=1;jettySize=auto;html=1;entryX=0.5;entryY=0;entryDx=0;entryDy=0;" edge="1" parent="1" source="3YjA9elF94JakfE6r7-t-26" target="3YjA9elF94JakfE6r7-t-21">
          <mxGeometry relative="1" as="geometry" />
        </mxCell>
        <mxCell id="3YjA9elF94JakfE6r7-t-26" value="" style="shape=waypoint;sketch=0;fillStyle=solid;size=6;pointerEvents=1;points=[];fillColor=none;resizable=0;rotatable=0;perimeter=centerPerimeter;snapToPoint=1;" vertex="1" parent="1">
          <mxGeometry x="499" y="390" width="20" height="20" as="geometry" />
        </mxCell>
        <mxCell id="3YjA9elF94JakfE6r7-t-27" style="edgeStyle=orthogonalEdgeStyle;rounded=0;orthogonalLoop=1;jettySize=auto;html=1;" edge="1" parent="1" source="3YjA9elF94JakfE6r7-t-31" target="3YjA9elF94JakfE6r7-t-32">
          <mxGeometry relative="1" as="geometry">
            <mxPoint x="420" y="570" as="targetPoint" />
          </mxGeometry>
        </mxCell>
        <mxCell id="3YjA9elF94JakfE6r7-t-28" value="Yes" style="edgeLabel;html=1;align=center;verticalAlign=middle;resizable=0;points=[];" vertex="1" connectable="0" parent="3YjA9elF94JakfE6r7-t-27">
          <mxGeometry x="-0.2982" y="2" relative="1" as="geometry">
            <mxPoint x="26" y="-17" as="offset" />
          </mxGeometry>
        </mxCell>
        <mxCell id="3YjA9elF94JakfE6r7-t-29" style="edgeStyle=orthogonalEdgeStyle;rounded=0;orthogonalLoop=1;jettySize=auto;html=1;entryX=0.5;entryY=0;entryDx=0;entryDy=0;" edge="1" parent="1" source="3YjA9elF94JakfE6r7-t-31" target="3YjA9elF94JakfE6r7-t-34">
          <mxGeometry relative="1" as="geometry">
            <mxPoint x="620" y="525" as="targetPoint" />
          </mxGeometry>
        </mxCell>
        <mxCell id="3YjA9elF94JakfE6r7-t-30" value="No" style="edgeLabel;html=1;align=center;verticalAlign=middle;resizable=0;points=[];" vertex="1" connectable="0" parent="3YjA9elF94JakfE6r7-t-29">
          <mxGeometry x="-0.712" relative="1" as="geometry">
            <mxPoint x="-12" y="-15" as="offset" />
          </mxGeometry>
        </mxCell>
        <mxCell id="3YjA9elF94JakfE6r7-t-31" value="Matching Events?" style="rhombus;whiteSpace=wrap;html=1;" vertex="1" parent="1">
          <mxGeometry x="474" y="490" width="70" height="70" as="geometry" />
        </mxCell>
        <mxCell id="3YjA9elF94JakfE6r7-t-32" value="View Filtered Events" style="rounded=1;whiteSpace=wrap;html=1;" vertex="1" parent="1">
          <mxGeometry x="340" y="565" width="120" height="35" as="geometry" />
        </mxCell>
        <mxCell id="3YjA9elF94JakfE6r7-t-33" style="edgeStyle=orthogonalEdgeStyle;rounded=0;orthogonalLoop=1;jettySize=auto;html=1;" edge="1" parent="1" source="3YjA9elF94JakfE6r7-t-34" target="3YjA9elF94JakfE6r7-t-36">
          <mxGeometry relative="1" as="geometry">
            <mxPoint x="629" y="660" as="targetPoint" />
          </mxGeometry>
        </mxCell>
        <mxCell id="3YjA9elF94JakfE6r7-t-34" value="Show Message &quot;&lt;span id=&quot;docs-internal-guid-e78d8c99-7fff-85b7-a692-b79c169ecf0b&quot;&gt;&lt;span style=&quot;background-color: transparent; font-variant-numeric: normal; font-variant-east-asian: normal; font-variant-alternates: normal; font-variant-position: normal; font-variant-emoji: normal; vertical-align: baseline; white-space-collapse: preserve;&quot;&gt;&lt;font style=&quot;font-size: 12px;&quot;&gt;&lt;font face=&quot;Helvetica&quot;&gt;No events found.&lt;/font&gt;&lt;/font&gt;&lt;/span&gt;&lt;/span&gt;&quot;" style="rounded=1;whiteSpace=wrap;html=1;" vertex="1" parent="1">
          <mxGeometry x="569" y="550" width="121" height="60" as="geometry" />
        </mxCell>
        <mxCell id="3YjA9elF94JakfE6r7-t-35" style="edgeStyle=orthogonalEdgeStyle;rounded=0;orthogonalLoop=1;jettySize=auto;html=1;entryX=0.5;entryY=0;entryDx=0;entryDy=0;" edge="1" parent="1" source="3YjA9elF94JakfE6r7-t-36" target="3YjA9elF94JakfE6r7-t-37">
          <mxGeometry relative="1" as="geometry" />
        </mxCell>
        <mxCell id="3YjA9elF94JakfE6r7-t-36" value="View no Results" style="rounded=1;whiteSpace=wrap;html=1;" vertex="1" parent="1">
          <mxGeometry x="569" y="640" width="120" height="40" as="geometry" />
        </mxCell>
        <mxCell id="3YjA9elF94JakfE6r7-t-37" value="" style="ellipse;html=1;shape=endState;fillColor=#000000;strokeColor=#000000;" vertex="1" parent="1">
          <mxGeometry x="614" y="710" width="30" height="30" as="geometry" />
        </mxCell>
      </root>
    </mxGraphModel>
  </diagram>
</mxfile>
